<svg width="300" height="300" xmlns="http://www.w3.org/2000/svg" style="vector-effect: non-scaling-stroke;" preserveAspectRatio="xMidYMid meet" version="1.0">
 <metadata style="vector-effect: non-scaling-stroke;">Created by potrace 1.10, written by Peter Selinger 2001-2011</metadata>

 <g>
  <title>Layer 1</title>
  <g id="svg_1" class="favicon-fill" fill="#91B77F" transform="translate(0, 296) scale(0.05, -0.05)">
   <path id="svg_2" d="m1865.76813,5848.96838c-137.7269,-61.97711 -497.19413,-428.33067 -564.68031,-574.32119c-60.59984,-129.46329 -75.7498,-4494.0289 -16.52723,-4699.24199c45.44988,-159.76321 458.63059,-575.69846 614.26199,-619.77107c157.00867,-42.69534 1830.39056,-41.31807 1976.38108,2.75454c150.12233,45.44988 491.68505,367.73084 582.58481,550.90762l71.61799,143.23598l0,1034.32905c0,1393.79628 60.59984,1294.6329 -793.30697,1296.01017c-764.38432,0 -804.32512,-19.28177 -804.32512,-385.63533c0,-283.71742 74.37253,-358.08995 362.22176,-359.46722c460.00786,-4.13181 491.68505,-53.71349 491.68505,-783.66609c0,-812.58874 24.79084,-793.30697 -951.69291,-779.53428c-717.55717,9.64088 -757.49798,19.28177 -809.8342,207.96763c-39.9408,141.85871 -39.9408,3921.08498 0,4062.94369c52.33622,187.30859 93.6543,198.32674 798.81605,209.3449c984.74737,13.77269 943.4293,46.82715 962.71106,-775.40247l13.77269,-575.69846l77.12707,-66.10891c157.00867,-134.97237 530.24858,-81.25887 610.13019,86.76795c52.33622,110.18152 61.97711,1223.01491 12.39542,1403.43716c-38.56353,136.34964 -426.9534,548.15308 -589.47115,622.52561c-170.78136,78.50434 -1870.33137,77.12707 -2043.86727,-1.37727z"/>
  </g>
 </g>
</svg>