<?xml version="1.0" standalone="no"?>
<!DOCTYPE svg PUBLIC "-//W3C//DTD SVG 20010904//EN"
 "http://www.w3.org/TR/2001/REC-SVG-20010904/DTD/svg10.dtd">
<svg version="1.0" xmlns="http://www.w3.org/2000/svg"
 width="188.000000pt" height="296.000000pt" viewBox="0 0 188.000000 296.000000"
 preserveAspectRatio="xMidYMid meet">
<metadata>
Created by potrace 1.10, written by Peter Selinger 2001-2011
</metadata>
<g transform="translate(0.000000,296.000000) scale(0.050000,-0.050000)"
fill="#91B77F" stroke="none" class="favicon-fill">
<path d="M1166 5081 c-100 -45 -361 -311 -410 -417 -44 -94 -55 -3263 -12
-3412 33 -116 333 -418 446 -450 114 -31 1329 -30 1435 2 109 33 357 267 423
400 l52 104 0 751 c0 1012 44 940 -576 941 -555 0 -584 -14 -584 -280 0 -206
54 -260 263 -261 334 -3 357 -39 357 -569 0 -590 18 -576 -691 -566 -521 7
-550 14 -588 151 -29 103 -29 2847 0 2950 38 136 68 144 580 152 715 10 685
34 699 -563 l10 -418 56 -48 c114 -98 385 -59 443 63 38 80 45 888 9 1019 -28
99 -310 398 -428 452 -124 57 -1358 56 -1484 -1z"/>
</g>
</svg>
