 <svg  version="1.0" xmlns="http://www.w3.org/2000/svg"  width="300.000000pt" height="198.000000pt" viewBox="0 0 300.000000 198.000000"  preserveAspectRatio="xMidYMid meet">  <g transform="translate(0.000000,198.000000) scale(0.050000,-0.050000)" fill="#98d8aa" stroke="none"> <path d="M4253 3888 c-200 -36 -397 -119 -557 -233 -651 -466 -351 -1297 344 -954 363 180 697 100 734 -174 24 -185 -100 -277 -433 -320 -344 -45 -456 -144 -436 -382 17 -205 150 -298 463 -325 339 -29 490 -200 380 -431 -75 -158 -402 -205 -610 -88 -341 191 -536 198 -723 23 -150 -141 -108 -444 85 -610 427 -365 1392 -444 1893 -155 596 344 734 1087 290 1560 l-101 107 89 99 c253 282 343 787 201 1135 -235 578 -889 880 -1619 748z"/> <path d="M2306 3391 c-277 -78 -1520 -721 -1856 -961 -585 -416 -552 -992 79 -1400 358 -232 1468 -811 1696 -886 476 -155 852 162 694 585 -66 176 -140 225 -966 642 -413 208 -744 385 -737 392 8 7 347 182 754 388 842 427 847 430 929 594 197 394 -149 770 -593 646z"/> </g> </svg> 