<svg width="300" height="300" xmlns="http://www.w3.org/2000/svg" preserveAspectRatio="xMidYMid meet" version="1.0">
  <defs>
    <style>
      .matcha-primary { fill: #98D8AA; }
      .matcha-secondary { fill: #FFB6C1; }
    </style>
  </defs>
 <g>
  <title>Layer 1</title>
  <g transform="translate(0, 198) scale(0.05, -0.05)" id="svg_1" stroke="none">
   <path class="matcha-primary"  d="m4276.69232,2944.87493c-201.92833,-36.3471 -400.82774,-120.14736 -562.37041,-235.24651c-657.27672,-470.49301 -354.38422,-1309.50523 347.31673,-963.19814c366.49992,181.7355 703.72024,100.96417 741.07698,-175.67765c24.2314,-186.78371 -100.96417,-279.67074 -437.17484,-323.08533c-347.31673,-45.43387 -460.3966,-145.3884 -440.20376,-385.68311c17.16391,-206.97654 151.44625,-300.87322 467.46409,-328.13354c342.26852,-29.27961 494.72441,-201.92833 383.66383,-435.15556c-75.72312,-159.52338 -405.87595,-206.97654 -615.88141,-88.84847c-344.28781,192.84156 -541.16793,199.90905 -729.97092,23.22176c-151.44625,-142.35947 -109.0413,-448.2809 85.81954,-615.88141c431.11699,-368.51921 1405.42119,-448.2809 1911.25166,-156.49446c601.74643,347.31673 741.07698,1097.48049 292.79608,1575.04099l-101.97381,108.03166l89.85811,99.95452c255.43934,284.71895 346.30709,794.58799 202.93797,1145.94329c-237.26579,583.57288 -897.57144,888.48466 -1634.60985,755.21196z"/>
   <path class="matcha-secondary" d="m2310.92001,2443.08303c-279.67074,-78.75205 -1534.65532,-727.95164 -1873.89492,-970.26564c-590.64037,-420.01093 -557.3222,-1001.56453 79.76169,-1413.49833c361.45171,-234.23687 1482.15396,-818.81939 1712.35226,-894.54251c480.58943,-156.49446 860.2147,163.56195 700.69131,590.64037c-66.63635,177.69693 -141.34983,227.16937 -975.31384,648.18995c-416.98201,210.00547 -751.1734,388.71204 -744.1059,395.77953c8.07713,7.06749 350.34566,183.75478 761.26981,391.74096c850.11828,431.11699 855.16649,434.14591 937.9571,599.72715c198.89941,397.79881 -150.43661,777.42408 -598.71751,652.22851z"/>
  </g>
 </g>
</svg>