<?xml version="1.0" encoding="UTF-8"?>
<svg id="Layer_1" xmlns="http://www.w3.org/2000/svg" version="1.1" viewBox="0 0 840 440">
  <!-- Generator: Adobe Illustrator 29.5.1, SVG Export Plug-In . SVG Version: 2.1.0 Build 141)  -->
  <path d="M402.3,151.95c-4.08-4.33,3.88-25.86-10.69-23.7-2.37.35-4.25,1.54-5.36,3.66-.9,1.72-6.52,18.36-6.82,20.28-2.38,15.46,35.22,23.08,38.41,35.77,1.33,5.28-5.62,12.82-9.28,16.27-10.22,9.63-45.17,33.31-47.47,46.53-1.4,8.08-.41,17.49-1.89,25.69,6.88,16.17,30.06,25.35,46.88,22.3,30.95-5.61,21.36-60.3,12.69-80.79-1.35-3.2-4.11-4.32-3.82-9.27.38-6.59,10.96-6.73,15.1-2.01,6.06,6.93,11.58,39.28,11.97,49.02.75,18.69-6.89,47.93-26.77,54.22-19.41,6.13-39.94.32-56.21-10.72.63,16.05,1.14,32.65,4.92,48.56l56.06-5.57c-5.38-13.47,15.44-16.24,23.84-21.15l2.2-31.31c-2.41-31.06,1.3-63.2-5.33-93.75-1.45-6.68-7.73-14.87,5.05-15.55,6.16-.33,8.35,3.1,9.12,8.38,2.21,15.23,2.73,30.61,4.17,45.84l.96,73.54c1.17,1.32,10.62-9.27,11.98-10.51,16.27-14.8,62.46-54.69,68.46-73.53,1.38-4.34,1.92-5.25-.62-9.29-7.41-11.79-45.97-30.86-59.81-38.19-20.01-10.6-68.49-25.04-52.21-56.17,8.19-15.67,34.85-37.01,52.16-22.77,6.74,5.54,6.75,31.36,6.07,40-.37,4.75-.99,12.92-6.5,13.52-13.63,1.5-6.97-13.61-6.49-21.52.25-4.16.48-18.69-1.56-21.53-6.83-9.49-29.5,12.37-31.25,20.71-2.24,10.63,4.63,13.29,12.25,18.3,23.43,15.39,91.31,40.86,102.02,64.98,3.14,7.07,2.18,11.43-.65,18.35-7.72,18.9-56,62.87-73.57,78.36-.68.6-1.92-.06-1.27,2.28.95.77,16.57-2.67,19.51-2.98,7.51-.79,17.59-1.86,24.95-2.05,10.01-.26,20.68,2.29,29.99,2.08,7.45-.17,20.87-5.3,29.32-6.76,3.83-.66,8.31-.79,12.23-1.28-10.23-55.68-33.6-107.83-58.11-158.4-.51-1.09-1.27-1.4-2.4-1.6-10.59-1.96-33.75,6.51-30.33-11.83,2.28-3.74,23.86-1.6,28.83-2.16.1-2.1-.28-4.33.09-6.42.85-4.87,6.04-10.12,10.86-11.14,15.81-3.34,33.03,3.28,48.02,7.09,4.49,1.14,14.78,1.36,17.61,4.38,3.18,3.39,1,6.34,2.43,10.06l-60.03,9.54c24.92,50.08,46.95,102.33,58.07,157.44,8.3-1.27,17.32-1.03,25.51-1.91,1.51-.16,2.48-.11,3.43-1.55l-3.6-3.97,3.62-21.04c.33-14.53,2.6-33.47-1.45-47.53-1.37-4.76-9.35-12.81-1.28-16.2,14.22-5.98,15.8,10.02,17.49,19.99,3.09,18.22,2.28,34.97.26,53.24,1.46,1.57,34.73-14.64,38.67-16.82,12.67-7.02,36.88-19.23,20.86-35.2-22.11-22.03-60.05-33.4-85.46-51.54-17.63-12.58-24.4-22.7-10.48-42.35,9.8-13.83,32.26-30.46,49.9-29.08,41.81,3.28,30.56,61.43,20.99,88.04,15.57,11.12,43.34,23.48,46.28,44.69,1.52,10.95-6.09,18.21-13.75,24.77-10.22,8.76-26.01,16.98-38.34,22.66-9.07,4.19-19.02,8.28-28.68,10.83,3.79,3.74,12.12,2.31,17.24,3.25,5.99,1.09,14.13,4.63,12.52,11.97-2.17,9.96-18.8,2.85-25.4,1.9-3.37-.49-7.95-.77-11.37-.63,7.44,4.03,10.06,11.93,15.02,17.98,10.1,12.32,23.97,20.01,37.98,27.1,30.02-.96,60.38-2.14,90.23,2.7,7.67,1.24,36.49,8.45,40.23,14.76.73,1.23,1.68,6.49,1.07,7.92-1.43,3.37-10.3,3.78-14.04,4.04-26.45,1.78-71.33-.95-96.91-7.07-7.37-1.76-20.84-7.52-27.1-7.96-22.67-1.59-94.35,15.31-110.94,31.07-3.12,2.97-4.26,3.07-2.87,7.78,2.03,6.9,9.39,6.82,10.31,11.7.5,2.69-.3,6.08.09,8.91-2.55-.15-3.93,3.18-4.48,3.29-6.02,1.12-16.92-8.84-20-13.8-23.44-37.87,45.98-49.18,69.17-54.65l1.24-2.26c-11.05-1.59-21.79-4.77-32.78-6.73-55.8-9.92-120.12-6.58-176.71-3.27-18.99,1.11-38.84,6.18-58.01,6.99l-2.07.93c-2.28,3.79,4.17,13.77,3.47,16.38-1.13,4.22-11.03,6.86-13.98,3.26-2.31-2.81-2.53-14.09-4.4-16.6-2.3-3.08-16.38,2.38-20.1,2.94-33.62,5.1-67.12,10.49-100.64,16.36-41.08,7.18-128.8,26.95-164.8,5.24-39.99-24.12,9.6-64.07,33.97-76.06,5.76-2.83,22.4-10.74,23.06,1.13.32,5.82-7.9,6.48-11.02,7.91-14.35,6.59-26.22,14.3-36.97,26.03-12.94,14.11-11.94,22.38,6.45,29.49,18.02,6.97,38.1,4.49,57.06,5.02,70.76-7.43,140.82-19.81,211.02-31.01-4.47-18.74-2.39-37.79-3.57-56.52-.79-12.54-5.77-22.75-3.75-35.77.79-5.09,4.5-10.02,5.5-15.5,3.15-17.26,3.79-35.15,7.53-52.47,2.06-9.51,9.01-26.33,9.49-34.52.94-16.15-2.98-17.94,8.24-32.75,6.38-8.42,5.44-10.47,8.96-20.04,8.31-22.62,18.16-44.67,26.03-67.46-14.17,2.18-27.67,7.48-40.98,12.51-21.27,8.04-48.13,18.6-68.23,28.77-1.52.77-6.77,3.54-7.27,4.64l3.64,29.4c1.54,3.47,5.43,1.01,7.4,3.54,4.55,5.85-.42,9.5-2.07,15.11-9.64,32.74-3.03,87,1.67,121.34,1.33,9.73,7.93,36.26,5.64,43.97-1.38,4.64-10.22,5.59-13.85,1.21-3.14-3.78-9.31-26.37-10.66-32.31-8.64-38.14-6.96-79.77-1.3-118.2-3.31-.82-4.97,2.39-7.1,3.39-7.47,3.48-20.92,7.92-25.95-.92-.26-9.58,10-6.58,17.04-8.99,2.9-.99,16.06-7.82,16.86-10.14.07-6.23.52-12.61.15-18.83-.58-9.84-4.83-22.42-5.02-31.07-.05-2.25.34-4.36,2.08-5.9,29.26-13.36,58.82-27.03,89.16-37.84,11.66-4.15,36.97-13.26,48.34-13.74,15.21-.63,4.63,15.25,1.98,22.06-9.15,23.5-18.36,46.98-27.51,70.47.09,1.36,8.44,2.42,10.68,3.29,11.19,4.36,13.57,19,12.32,29.72-.79,6.81-8.2,10.07-12.76,5.22ZM629.42,141.57c-1.33,2.03-4.77,8.8-4.23,10.93,1.46,5.73,27.96,20.57,34.18,23.87l15.7,7.39c7.09-16.25,11.81-41.57,4.16-58.25-10.01-21.8-41.86,3.91-49.81,16.06ZM566.03,122.21c-6.25,1.16-14.47-2.96-18.97,2.49l8.51.53c2.91-.73,6.14-.64,8.96-1.06,1.74-.26,1.68.52,1.5-1.97ZM388.36,202.55c2.46-2.06,14.66-9.17,13.62-12.72-.38-1.29-14.66-8.26-17.26-9.81-1.87-1.12-10.29-8.14-11.68-6.82l-9,50c1.73.45,2-.72,3-1.49,6.81-5.22,14.43-13.4,21.32-19.16ZM639.03,310.21l-29.88,3.11c-.47,2.54-1.57,6.27-3.59,7.95-.49.41-11.09,3.71-12.11,3.84-8.64,1.09-17.14-3.69-24.97-3.94-4.71-.15-17.67,4.33-22.98,5.99-8.86,2.76-17.67,6.56-26.46,9.53l44.48,1.52c27.06,2.93,56.38,5.15,82.3,13.7,4.31,1.42,10.99,2.7,11.78,7.35l12.43-1.07c-10.43-7.83-18.37-16-25.42-27.07-2.07-3.25-8.08-12.13-7.59-15.34.28-1.86,2.58-3.27,2-5.57ZM525.04,317.21c-5.33.11-10.96.53-16.23,1.26-7.4,1.03-39.96,8.02-45.14,10.86-.92.5-6.59,5.91-6.61,6.37-.06,1.51,2.13,1.06,2.98,1.03,11.65-.45,50.66-12,61.99-17.04,1.2-.53,2.75-.96,3.01-2.48Z"/>
  <path d="M194.02,117.2c2.41-8.22,12.83-17.85,20.79-20.72,8.05-2.91,28.06-6.78,30.8,4.73l-22.47,53.5c11.45,7.73,22.79,12.66,33.55,21.84,1,.86,1.4,2.78,2.79,3.71,2.16,1.44,8.6,1.86,9.46,4.62-.64,4.37-1.1,8.41-.94,12.87.62,17.59,2.5,35.38,3.08,52.91.54,16.28,3.67,54.58-7.54,66.54-17.84,19.03-48.57,5.88-67.52-4.48-13.48-7.37-24.44-14.73-30.65-29.56l-23.11,4.25c-3.9,2.8,4.22,22.78-10.73,21.88-10.7-.64-2.8-17.41-4.48-19.09-19.7,1.55-39.72,3.06-59.55,2.04C-.86,288.76-4.65,240.26,28.62,191.29c27.45-40.4,65.7-72.42,93.85-112.15,6-8.47,10.61-17.84,17.02-26.03,4.89-3.34,17.28,10.71,20.58,14.57,5.78,6.78,7.73,13.25,12.24,19.76.81,1.16.78,2.19,2.73,1.76l-.97-50.46c5.82-9.42,11.6,0,12.74,7.2,3.28,20.8-3.33,44.08,2.75,65.25.32,1.12,2.51,7.49,4.48,6ZM180.33,124.9c-11.66-10.57-13.81-33.42-22.86-45.63-1.22-1.65-9.74-8.66-11.44-9.57-.97-.52-1.87-.71-2.95-.46-6.38,11.34-14.86,22.88-23.1,33.17-26.73,33.38-93.4,94.68-97.82,136.42-4.83,45.58,46.58,42.89,78.42,41.42,8.57-.4,17.71-1.82,26.02-2.98.96-1.38-1.07-21.04-1.19-24.73s-.34-7.22-.41-10.79c-.48-23.04,5.13-76.11-1.22-94.78-1.48-4.36-5.23-5.92-2.21-11.74,1.85-3.57,9.07-2.34,11.99-.04,2.45,1.93,2.75,4.61,4.48,6.52,20.31,22.31,30.74,33.19,42.18,62.82,2.49,6.46,4.42,14.84,5.82,21.69,1.7.17,3.17-.07,4.74-.76,4.78-2.11,12.12-7.8,17.41-10.59,10.58-5.57,27.17-11.69,35.49-20.01s2.28-9.66-5.13-14.67c-20.68-13.98-46.53-24.17-46.53-53.98-3.95,2.14-8.26,1.81-11.69-1.3ZM230.58,105.37c-22.94,2.54-32.5,21.76-17.96,40.76,1.41.31,2.04.26,2.9-.95,1.49-2.08,5.22-14.93,7.04-18.96,2.81-6.24,6.77-12.27,9.34-18.69l-1.32-2.15ZM143.83,162.48c-.89-.51-1.84-.25-2.79-.28-.35,8.47.44,17.08.04,25.54-.3,6.22-1.9,13.74-2.08,19.92-.67,22.51.35,45.2,1.04,67.54l22.01-4c-2.98-14.09,6.18-27.23,15.77-36.61-5.45-21.16-11.71-43.94-24.95-61.71-.93-1.24-8.44-10.05-9.03-10.39ZM250.69,310.86c.95-.91,2.26-3.38,2.84-4.66,7.61-16.96,3.53-71.92,2.47-92.45-.18-3.44.89-6.84.84-9.3-.02-.95-.58-2.08-1.32-2.25-.84-.18-12.06,8.52-14.18,9.8-16.39,9.98-34.64,17.14-49.79,29.2-1.43,7.41,2.22,15.25-.17,22.83-1.92,6.1-11.78,10.62-12.18,12.81,4.4,13.31,18.3,22.46,30.46,28.23,8.71,4.13,33.47,13.04,41.03,5.78Z"/>
  <path d="M668.45,30.62c-21.33,20.18-44.57,38.58-66.97,57.6-6.94.62-13.44-4.89-8.5-11.57,1.81-2.44,12.41-10.75,15.57-13.42,17.31-14.57,36.36-28.7,54.2-42.8,1.2-.95,2.73-1.14,2.27-3.22-23.61,4.4-51.48,11.63-71.92,24.57-7.63,4.83-11.91,11.49-20.04,14.96-1.46.63-3.99.15-5.09.91-1.73,1.2-.23,11.15-3.95,13.54,3.55.38,7.2,2.42,10.6,2.96,2.44.39,5.31-1.04,6.92-.04,3.75,2.31,7.26,9.21,4.55,13.43-5,4.28-8.31.33-12.08-.84-15.22-4.71-30.83-11.07-45.99-15.01-12.37-3.21-26.02-4.11-37.98-9.02-13.76-5.64-24.89-15.83-6.26-25.21,19.97-10.05,60.01-18.93,76.88.09,1.67,1.88,4.14,8.02,5.83,7.63,1.08-.25,14.94-10.9,18.22-12.79,17.86-10.27,64.9-27.94,84.71-25.1,4.24.61,8.59,4.46,9.44,8.64,1.13,5.59-6.91,11.35-10.43,14.68ZM552.03,66.21c2.08-7.64,4.56-11.16.21-18.7-10.62-18.42-45.69-8.72-61.2-1.29-1.68,1.84,4.46,3.66,5.46,4.03,17.94,6.67,37.92,8.18,55.53,15.96Z"/>
  <path d="M752.27,303.99c-1.1-.8-1.16-3.4-.81-4.78,1.85-7.51,25.89-28.69,33.08-33,4.53-2.72,12.11-1.31,14.97,3.05,2.71,4.13,1.54,11.06-2.53,14.38-9.64,7.87-24.49,13.75-34.65,21.36-1.71.52-8.89-.16-10.06-1.01Z"/>
  <path d="M758.66,280.82c-2.67,2.54-6.54,4.76-8.63,7.88-3.04,4.53-2.22,13.57-10.55,6.56-6.57-5.53-3.62-11.62.32-17.79,3.19-5,22.59-23.13,27.66-25.34s12.28-.78,14.14,5.03c2.37,7.4-4.92,7.82-9.06,11.05-4.88,3.8-9.4,8.35-13.87,12.62Z"/>
</svg>